<svg width="18" height="18" viewBox="0 0 18 18" fill="none" xmlns="http://www.w3.org/2000/svg">
<g clip-path="url(#clip0_1267_557)">
<path d="M15.75 5.46V3.75C15.75 2.925 15.075 2.25 14.25 2.25H3.75C2.9175 2.25 2.25 2.925 2.25 3.75V14.25C2.25 15.075 2.9175 15.75 3.75 15.75H14.25C15.075 15.75 15.75 15.075 15.75 14.25V12.54C16.1925 12.2775 16.5 11.805 16.5 11.25V6.75C16.5 6.195 16.1925 5.7225 15.75 5.46ZM15 6.75V11.25H9.75V6.75H15ZM3.75 14.25V3.75H14.25V5.25H9.75C8.925 5.25 8.25 5.925 8.25 6.75V11.25C8.25 12.075 8.925 12.75 9.75 12.75H14.25V14.25H3.75Z" fill="#2F5318"/>
<path d="M12 10.125C12.6213 10.125 13.125 9.62132 13.125 9C13.125 8.37868 12.6213 7.875 12 7.875C11.3787 7.875 10.875 8.37868 10.875 9C10.875 9.62132 11.3787 10.125 12 10.125Z" fill="#2F5318"/>
</g>
<defs>
<clipPath id="clip0_1267_557">
<rect width="18" height="18" fill="white"/>
</clipPath>
</defs>
</svg>
