<svg width="22" height="22" viewBox="0 0 22 22" fill="none" xmlns="http://www.w3.org/2000/svg">
<g clip-path="url(#clip0_815_883)">
<path d="M17.4167 2.75H4.58333C3.575 2.75 2.75 3.575 2.75 4.58333V11C2.75 12.0083 3.575 12.8333 4.58333 12.8333H17.4167C18.425 12.8333 19.25 12.0083 19.25 11V4.58333C19.25 3.575 18.425 2.75 17.4167 2.75ZM4.58333 9.16667H7.4525C7.645 9.88167 8.06667 10.5142 8.61667 11H4.58333V9.16667ZM17.4167 11H13.3833C13.9333 10.5142 14.355 9.88167 14.5475 9.16667H17.4167V11ZM17.4167 7.33333H12.8333V8.25C12.8333 9.23083 11.9808 10.0833 11 10.0833C10.0192 10.0833 9.16667 9.23083 9.16667 8.25V7.33333H4.58333V4.58333H17.4167V7.33333ZM15.5833 13.75H12.8333V14.6667C12.8333 15.0975 12.6592 15.4917 12.3933 15.8125C12.0542 16.225 11.55 16.5 11 16.5C10.45 16.5 9.94583 16.225 9.60667 15.8125C9.34083 15.4917 9.16667 15.0975 9.16667 14.6667V13.75H2.75V17.4167C2.75 18.425 3.575 19.25 4.58333 19.25H17.4167C18.425 19.25 19.25 18.425 19.25 17.4167V13.75H15.5833ZM4.58333 15.5833H7.4525C7.47083 15.6658 7.5075 15.7392 7.535 15.8125C7.755 16.4358 8.13083 16.9858 8.61667 17.4167H4.58333V15.5833ZM17.4167 17.4167H13.3833C13.8783 16.9858 14.2542 16.4358 14.465 15.8125C14.4925 15.7392 14.5292 15.6658 14.5475 15.5833H17.4167V17.4167Z" fill="white"/>
</g>
<defs>
<clipPath id="clip0_815_883">
<rect width="22" height="22" fill="white"/>
</clipPath>
</defs>
</svg>
