<svg width="22" height="22" viewBox="0 0 22 22" fill="none" xmlns="http://www.w3.org/2000/svg">
<g clip-path="url(#clip0_1470_1123)">
<path d="M18.8943 4.88867H16.2237C16.0616 4.88867 15.9062 4.95306 15.7916 5.06766C15.677 5.18227 15.6126 5.33771 15.6126 5.49978C15.6126 5.66186 15.677 5.8173 15.7916 5.93191C15.9062 6.04651 16.0616 6.1109 16.2237 6.1109H18.9431V18.3331H3.05425V6.1109H5.73092C5.893 6.1109 6.04844 6.04651 6.16304 5.93191C6.27765 5.8173 6.34203 5.66186 6.34203 5.49978C6.34203 5.33771 6.27765 5.18227 6.16304 5.06766C6.04844 4.95306 5.893 4.88867 5.73092 4.88867H3.10314C2.93857 4.88209 2.77437 4.90883 2.62039 4.96729C2.46641 5.02576 2.32584 5.11474 2.20712 5.2289C2.0884 5.34306 1.99397 5.48003 1.92952 5.6316C1.86506 5.78316 1.8319 5.94619 1.83203 6.1109V18.3331C1.8319 18.4978 1.86506 18.6609 1.92952 18.8124C1.99397 18.964 2.0884 19.101 2.20712 19.2151C2.32584 19.3293 2.46641 19.4183 2.62039 19.4767C2.77437 19.5352 2.93857 19.5619 3.10314 19.5553H18.8943C19.0588 19.5619 19.223 19.5352 19.377 19.4767C19.531 19.4183 19.6716 19.3293 19.7903 19.2151C19.909 19.101 20.0034 18.964 20.0679 18.8124C20.1323 18.6609 20.1655 18.4978 20.1654 18.3331V6.1109C20.1655 5.94619 20.1323 5.78316 20.0679 5.6316C20.0034 5.48003 19.909 5.34306 19.7903 5.2289C19.6716 5.11474 19.531 5.02576 19.377 4.96729C19.223 4.90883 19.0588 4.88209 18.8943 4.88867Z" fill="white"/>
<path d="M6.29308 11.5318L10.5709 15.7424C10.6851 15.8544 10.8387 15.9171 10.9986 15.9171C11.1586 15.9171 11.3122 15.8544 11.4264 15.7424L15.7042 11.5318C15.8201 11.4184 15.8861 11.2635 15.8879 11.1014C15.8896 10.9392 15.8268 10.783 15.7134 10.6671C15.5999 10.5512 15.4451 10.4852 15.2829 10.4834C15.1207 10.4817 14.9645 10.5445 14.8486 10.6579L11.6097 13.8418V2.44461C11.6097 2.28253 11.5454 2.12709 11.4308 2.01249C11.3162 1.89788 11.1607 1.8335 10.9986 1.8335C10.8366 1.8335 10.6811 1.89788 10.5665 2.01249C10.4519 2.12709 10.3875 2.28253 10.3875 2.44461V13.8418L7.14864 10.6579C7.03275 10.5445 6.87655 10.4817 6.71438 10.4834C6.55221 10.4852 6.39737 10.5512 6.28392 10.6671C6.17046 10.783 6.10769 10.9392 6.10941 11.1014C6.11113 11.2635 6.1772 11.4184 6.29308 11.5318Z" fill="white"/>
</g>
<defs>
<clipPath id="clip0_1470_1123">
<rect width="22" height="22" fill="white"/>
</clipPath>
</defs>
</svg>
