<svg width="22" height="22" viewBox="0 0 22 22" fill="none" xmlns="http://www.w3.org/2000/svg">
<g clip-path="url(#clip0_845_1585)">
<path d="M10.084 12.8333H8.25065C8.25065 8.27742 11.9448 4.58325 16.5007 4.58325V6.41659C12.9532 6.41659 10.084 9.28575 10.084 12.8333ZM16.5007 10.0833V8.24992C13.9707 8.24992 11.9173 10.3033 11.9173 12.8333H13.7507C13.7507 11.3116 14.979 10.0833 16.5007 10.0833ZM6.41732 3.66659C6.41732 2.64909 5.60148 1.83325 4.58398 1.83325C3.56648 1.83325 2.75065 2.64909 2.75065 3.66659C2.75065 4.68409 3.56648 5.49992 4.58398 5.49992C5.60148 5.49992 6.41732 4.68409 6.41732 3.66659ZM10.4965 4.12492H8.66315C8.44315 5.42659 7.32482 6.41659 5.95898 6.41659H3.20898C2.44815 6.41659 1.83398 7.03075 1.83398 7.79159V10.0833H7.33398V8.01159C9.03898 7.47075 10.3132 5.96742 10.4965 4.12492ZM17.4173 15.5833C18.4348 15.5833 19.2507 14.7674 19.2507 13.7499C19.2507 12.7324 18.4348 11.9166 17.4173 11.9166C16.3998 11.9166 15.584 12.7324 15.584 13.7499C15.584 14.7674 16.3998 15.5833 17.4173 15.5833ZM18.7923 16.4999H16.0423C14.6765 16.4999 13.5582 15.5099 13.3382 14.2083H11.5048C11.6882 16.0508 12.9623 17.5541 14.6673 18.0949V20.1666H20.1673V17.8749C20.1673 17.1141 19.5532 16.4999 18.7923 16.4999Z" fill="white"/>
</g>
<defs>
<clipPath id="clip0_845_1585">
<rect width="22" height="22" fill="white"/>
</clipPath>
</defs>
</svg>
