<svg width="22" height="22" viewBox="0 0 22 22" fill="none" xmlns="http://www.w3.org/2000/svg">
<g clip-path="url(#clip0_845_1562)">
<path d="M11.0007 1.83325C5.94065 1.83325 1.83398 5.93992 1.83398 10.9999C1.83398 16.0599 5.94065 20.1666 11.0007 20.1666C16.0607 20.1666 20.1673 16.0599 20.1673 10.9999C20.1673 5.93992 16.0607 1.83325 11.0007 1.83325ZM11.0007 18.3333C6.95815 18.3333 3.66732 15.0424 3.66732 10.9999C3.66732 6.95742 6.95815 3.66659 11.0007 3.66659C15.0432 3.66659 18.334 6.95742 18.334 10.9999C18.334 15.0424 15.0432 18.3333 11.0007 18.3333Z" fill="white"/>
<path d="M7.33333 14.6667C8.34586 14.6667 9.16667 13.8459 9.16667 12.8333C9.16667 11.8208 8.34586 11 7.33333 11C6.32081 11 5.5 11.8208 5.5 12.8333C5.5 13.8459 6.32081 14.6667 7.33333 14.6667Z" fill="white"/>
<path d="M10.9993 9.16667C12.0119 9.16667 12.8327 8.34586 12.8327 7.33333C12.8327 6.32081 12.0119 5.5 10.9993 5.5C9.98683 5.5 9.16602 6.32081 9.16602 7.33333C9.16602 8.34586 9.98683 9.16667 10.9993 9.16667Z" fill="white"/>
<path d="M14.6673 14.6667C15.6798 14.6667 16.5007 13.8459 16.5007 12.8333C16.5007 11.8208 15.6798 11 14.6673 11C13.6548 11 12.834 11.8208 12.834 12.8333C12.834 13.8459 13.6548 14.6667 14.6673 14.6667Z" fill="white"/>
</g>
<defs>
<clipPath id="clip0_845_1562">
<rect width="22" height="22" fill="white"/>
</clipPath>
</defs>
</svg>
