<svg width="22" height="22" viewBox="0 0 22 22" fill="none" xmlns="http://www.w3.org/2000/svg">
<path d="M7.33203 4.125V5.5H5.95703V6.41667H7.33203V7.79167H8.2487V6.41667H9.6237V5.5H8.2487V4.125H7.33203Z" fill="#FFCC00"/>
<path fill-rule="evenodd" clip-rule="evenodd" d="M5.95833 2.75C5.59366 2.75 5.24392 2.89487 4.98606 3.15273C4.7282 3.41059 4.58333 3.76033 4.58333 4.125V4.58333H2.75V13.2917H12.8333V4.58333H11V4.125C11 3.76033 10.8551 3.41059 10.5973 3.15273C10.3394 2.89487 9.98967 2.75 9.625 2.75H5.95833ZM9.625 9.16667C9.98967 9.16667 10.3394 9.0218 10.5973 8.76394C10.8551 8.50608 11 8.15634 11 7.79167V7.33333H11.9167V12.375H9.625V9.625H5.95833V12.375H3.66667V7.33333H4.58333V7.79167C4.58333 8.15634 4.7282 8.50608 4.98606 8.76394C5.24392 9.0218 5.59366 9.16667 5.95833 9.16667H9.625ZM5.5 4.125C5.5 4.00344 5.54829 3.88686 5.63424 3.80091C5.7202 3.71496 5.83678 3.66667 5.95833 3.66667H9.625C9.74656 3.66667 9.86314 3.71496 9.94909 3.80091C10.035 3.88686 10.0833 4.00344 10.0833 4.125V7.79167C10.0833 7.91322 10.035 8.0298 9.94909 8.11576C9.86314 8.20171 9.74656 8.25 9.625 8.25H5.95833C5.83678 8.25 5.7202 8.20171 5.63424 8.11576C5.54829 8.0298 5.5 7.91322 5.5 7.79167V4.125ZM3.66667 5.5H4.58333V6.41667H3.66667V5.5ZM11.9167 6.41667H11V5.5H11.9167V6.41667ZM8.70833 10.5417V12.375H6.875V10.5417H8.70833ZM13.75 12.8333C13.75 12.3471 13.9432 11.8808 14.287 11.537C14.6308 11.1932 15.0971 11 15.5833 11C16.0696 11 16.5359 11.1932 16.8797 11.537C17.2235 11.8808 17.4167 12.3471 17.4167 12.8333C17.4167 13.3196 17.2235 13.7859 16.8797 14.1297C16.5359 14.4735 16.0696 14.6667 15.5833 14.6667C15.0971 14.6667 14.6308 14.4735 14.287 14.1297C13.9432 13.7859 13.75 13.3196 13.75 12.8333ZM15.5833 11.9167C15.3402 11.9167 15.1071 12.0132 14.9352 12.1852C14.7632 12.3571 14.6667 12.5902 14.6667 12.8333C14.6667 13.0764 14.7632 13.3096 14.9352 13.4815C15.1071 13.6534 15.3402 13.75 15.5833 13.75C15.8264 13.75 16.0596 13.6534 16.2315 13.4815C16.4034 13.3096 16.5 13.0764 16.5 12.8333C16.5 12.5902 16.4034 12.3571 16.2315 12.1852C16.0596 12.0132 15.8264 11.9167 15.5833 11.9167ZM15.5833 15.125C14.3596 15.125 11.9167 15.7951 11.9167 17.1252V18.3333H7.79167C7.45754 18.3333 7.24075 18.2128 7.10279 18.0574C6.9575 17.8938 6.875 17.6628 6.875 17.4167V15.7731L8.38429 17.2824L9.03238 16.6343L6.41667 14.0186L3.80096 16.6343L4.44904 17.2824L5.95833 15.7731V17.4167C5.95833 17.858 6.105 18.3145 6.41804 18.6665C6.73842 19.0268 7.20913 19.25 7.79167 19.25H19.25V17.1252C19.25 15.7951 16.8071 15.125 15.5833 15.125ZM12.9681 16.8974C12.8384 17.028 12.8333 17.0995 12.8333 17.1252V18.3333H18.3333V17.1252C18.3333 17.0995 18.3288 17.028 18.1986 16.8974C18.0611 16.7585 17.8296 16.6068 17.5083 16.4665C16.8612 16.1828 16.0692 16.0417 15.5833 16.0417C15.0975 16.0417 14.3055 16.1838 13.6583 16.4661C13.337 16.6063 13.106 16.7585 12.9681 16.8974Z" fill="#FFCC00"/>
</svg>
