<svg width="14" height="14" viewBox="0 0 14 14" fill="none" xmlns="http://www.w3.org/2000/svg">
<g clip-path="url(#clip0_1263_396)">
<path d="M7.0013 1.1665C4.7438 1.1665 2.91797 2.99234 2.91797 5.24984C2.91797 8.31234 7.0013 12.8332 7.0013 12.8332C7.0013 12.8332 11.0846 8.31234 11.0846 5.24984C11.0846 2.99234 9.2588 1.1665 7.0013 1.1665ZM4.08464 5.24984C4.08464 3.63984 5.3913 2.33317 7.0013 2.33317C8.6113 2.33317 9.91797 3.63984 9.91797 5.24984C9.91797 6.92984 8.23797 9.444 7.0013 11.0132C5.78797 9.45567 4.08464 6.91234 4.08464 5.24984Z" fill="#2F5318"/>
<path d="M7.0013 6.70817C7.80672 6.70817 8.45964 6.05525 8.45964 5.24984C8.45964 4.44442 7.80672 3.7915 7.0013 3.7915C6.19589 3.7915 5.54297 4.44442 5.54297 5.24984C5.54297 6.05525 6.19589 6.70817 7.0013 6.70817Z" fill="#2F5318"/>
</g>
<defs>
<clipPath id="clip0_1263_396">
<rect width="14" height="14" fill="white"/>
</clipPath>
</defs>
</svg>
