<svg width="22" height="22" viewBox="0 0 22 22" fill="none" xmlns="http://www.w3.org/2000/svg">
<path d="M17.416 12.8334V5.50008C17.416 4.49175 16.591 3.66675 15.5827 3.66675H2.74935C1.74102 3.66675 0.916016 4.49175 0.916016 5.50008V12.8334C0.916016 13.8417 1.74102 14.6667 2.74935 14.6667H15.5827C16.591 14.6667 17.416 13.8417 17.416 12.8334ZM15.5827 12.8334H2.74935V5.50008H15.5827V12.8334ZM9.16602 6.41675C7.64435 6.41675 6.41602 7.64508 6.41602 9.16675C6.41602 10.6884 7.64435 11.9167 9.16602 11.9167C10.6877 11.9167 11.916 10.6884 11.916 9.16675C11.916 7.64508 10.6877 6.41675 9.16602 6.41675ZM21.0827 6.41675V16.5001C21.0827 17.5084 20.2577 18.3334 19.2493 18.3334H3.66602V16.5001H19.2493V6.41675H21.0827Z" fill="white"/>
</svg>
