<svg width="22" height="22" viewBox="0 0 22 22" fill="none" xmlns="http://www.w3.org/2000/svg">
<g clip-path="url(#clip0_839_1100)">
<path d="M15.2793 12.0359C16.5351 12.8884 17.4151 14.0434 17.4151 15.5834V18.3334H21.0818V15.5834C21.0818 13.5851 17.8093 12.4026 15.2793 12.0359Z" fill="white"/>
<path d="M13.7485 11.0001C15.7743 11.0001 17.4151 9.35925 17.4151 7.33341C17.4151 5.30758 15.7743 3.66675 13.7485 3.66675C13.3176 3.66675 12.9143 3.75841 12.5293 3.88675C13.2901 4.83091 13.7485 6.03175 13.7485 7.33341C13.7485 8.63508 13.2901 9.83592 12.5293 10.7801C12.9143 10.9084 13.3176 11.0001 13.7485 11.0001Z" fill="white"/>
<path d="M8.2487 11.0001C10.2745 11.0001 11.9154 9.35925 11.9154 7.33341C11.9154 5.30758 10.2745 3.66675 8.2487 3.66675C6.22286 3.66675 4.58203 5.30758 4.58203 7.33341C4.58203 9.35925 6.22286 11.0001 8.2487 11.0001ZM8.2487 5.50008C9.25703 5.50008 10.082 6.32508 10.082 7.33341C10.082 8.34175 9.25703 9.16675 8.2487 9.16675C7.24036 9.16675 6.41536 8.34175 6.41536 7.33341C6.41536 6.32508 7.24036 5.50008 8.2487 5.50008Z" fill="white"/>
<path d="M8.24935 11.9167C5.80185 11.9167 0.916016 13.1451 0.916016 15.5834V18.3334H15.5827V15.5834C15.5827 13.1451 10.6968 11.9167 8.24935 11.9167ZM13.7493 16.5001H2.74935V15.5926C2.93268 14.9326 5.77435 13.7501 8.24935 13.7501C10.7243 13.7501 13.566 14.9326 13.7493 15.5834V16.5001Z" fill="white"/>
</g>
<defs>
<clipPath id="clip0_839_1100">
<rect width="22" height="22" fill="white"/>
</clipPath>
</defs>
</svg>
