<svg width="15" height="15" viewBox="0 0 15 15" fill="none" xmlns="http://www.w3.org/2000/svg">
<path d="M12.5 1.25H6.25C5.75272 1.25 5.2758 1.44754 4.92417 1.79917C4.57254 2.15081 4.375 2.62772 4.375 3.125V7.5C4.375 7.99728 4.57254 8.4742 4.92417 8.82583C5.2758 9.17746 5.75272 9.375 6.25 9.375H12.5C12.9973 9.375 13.4742 9.17746 13.8258 8.82583C14.1775 8.4742 14.375 7.99728 14.375 7.5V3.125C14.375 2.62772 14.1775 2.15081 13.8258 1.79917C13.4742 1.44754 12.9973 1.25 12.5 1.25ZM13.125 7.5C13.125 7.66576 13.0592 7.82473 12.9419 7.94194C12.8247 8.05915 12.6658 8.125 12.5 8.125H6.25C6.08424 8.125 5.92527 8.05915 5.80806 7.94194C5.69085 7.82473 5.625 7.66576 5.625 7.5V3.125C5.625 2.95924 5.69085 2.80027 5.80806 2.68306C5.92527 2.56585 6.08424 2.5 6.25 2.5H12.5C12.6658 2.5 12.8247 2.56585 12.9419 2.68306C13.0592 2.80027 13.125 2.95924 13.125 3.125V7.5ZM10.9375 5C10.7062 5.00138 10.4836 5.08819 10.3125 5.24375C10.1781 5.12159 10.0111 5.04111 9.83184 5.01206C9.65256 4.98302 9.46871 5.00668 9.30262 5.08016C9.13654 5.15364 8.99537 5.27378 8.89628 5.42598C8.79718 5.57818 8.74443 5.75589 8.74443 5.9375C8.74443 6.11912 8.79718 6.29682 8.89628 6.44902C8.99537 6.60122 9.13654 6.72136 9.30262 6.79484C9.46871 6.86832 9.65256 6.89198 9.83184 6.86294C10.0111 6.8339 10.1781 6.75341 10.3125 6.63125C10.4254 6.73383 10.5616 6.80733 10.7092 6.84536C10.8569 6.8834 11.0117 6.88483 11.1601 6.84952C11.3084 6.81422 11.446 6.74324 11.5607 6.64276C11.6754 6.54228 11.7639 6.41532 11.8185 6.2729C11.8731 6.13048 11.8921 5.9769 11.8738 5.82548C11.8556 5.67405 11.8007 5.52936 11.7139 5.40395C11.6271 5.27854 11.511 5.1762 11.3757 5.10581C11.2404 5.03542 11.09 4.9991 10.9375 5ZM10 10.625C9.83424 10.625 9.67527 10.6908 9.55806 10.8081C9.44085 10.9253 9.375 11.0842 9.375 11.25V11.875C9.375 12.0408 9.30915 12.1997 9.19194 12.3169C9.07473 12.4342 8.91576 12.5 8.75 12.5H2.5C2.33424 12.5 2.17527 12.4342 2.05806 12.3169C1.94085 12.1997 1.875 12.0408 1.875 11.875V9.375H2.5C2.66576 9.375 2.82473 9.30915 2.94194 9.19194C3.05915 9.07473 3.125 8.91576 3.125 8.75C3.125 8.58424 3.05915 8.42527 2.94194 8.30806C2.82473 8.19085 2.66576 8.125 2.5 8.125H1.875V7.5C1.875 7.33424 1.94085 7.17527 2.05806 7.05806C2.17527 6.94085 2.33424 6.875 2.5 6.875C2.66576 6.875 2.82473 6.80915 2.94194 6.69194C3.05915 6.57473 3.125 6.41576 3.125 6.25C3.125 6.08424 3.05915 5.92527 2.94194 5.80806C2.82473 5.69085 2.66576 5.625 2.5 5.625C2.00272 5.625 1.52581 5.82254 1.17417 6.17417C0.822544 6.52581 0.625 7.00272 0.625 7.5V11.875C0.625 12.3723 0.822544 12.8492 1.17417 13.2008C1.52581 13.5525 2.00272 13.75 2.5 13.75H8.75C9.24728 13.75 9.72419 13.5525 10.0758 13.2008C10.4275 12.8492 10.625 12.3723 10.625 11.875V11.25C10.625 11.0842 10.5592 10.9253 10.4419 10.8081C10.3247 10.6908 10.1658 10.625 10 10.625ZM3.75 11.25H4.375C4.54076 11.25 4.69973 11.1842 4.81694 11.0669C4.93415 10.9497 5 10.7908 5 10.625C5 10.4592 4.93415 10.3003 4.81694 10.1831C4.69973 10.0658 4.54076 10 4.375 10H3.75C3.58424 10 3.42527 10.0658 3.30806 10.1831C3.19085 10.3003 3.125 10.4592 3.125 10.625C3.125 10.7908 3.19085 10.9497 3.30806 11.0669C3.42527 11.1842 3.58424 11.25 3.75 11.25Z" fill="#2F5318"/>
</svg>
