<svg width="22" height="22" viewBox="0 0 22 22" fill="none" xmlns="http://www.w3.org/2000/svg">
<path d="M18.3346 1.8335H9.16797C8.43862 1.8335 7.73915 2.12323 7.22342 2.63895C6.7077 3.15468 6.41797 3.85415 6.41797 4.5835V11.0002C6.41797 11.7295 6.7077 12.429 7.22342 12.9447C7.73915 13.4604 8.43862 13.7502 9.16797 13.7502H18.3346C19.064 13.7502 19.7635 13.4604 20.2792 12.9447C20.7949 12.429 21.0846 11.7295 21.0846 11.0002V4.5835C21.0846 3.85415 20.7949 3.15468 20.2792 2.63895C19.7635 2.12323 19.064 1.8335 18.3346 1.8335ZM19.2513 11.0002C19.2513 11.2433 19.1547 11.4764 18.9828 11.6483C18.8109 11.8203 18.5777 11.9168 18.3346 11.9168H9.16797C8.92485 11.9168 8.6917 11.8203 8.51979 11.6483C8.34788 11.4764 8.2513 11.2433 8.2513 11.0002V4.5835C8.2513 4.34038 8.34788 4.10722 8.51979 3.93532C8.6917 3.76341 8.92485 3.66683 9.16797 3.66683H18.3346C18.5777 3.66683 18.8109 3.76341 18.9828 3.93532C19.1547 4.10722 19.2513 4.34038 19.2513 4.5835V11.0002ZM16.043 7.3335C15.7038 7.33552 15.3773 7.46284 15.1263 7.691C14.9292 7.51183 14.6843 7.39378 14.4213 7.35119C14.1584 7.3086 13.8887 7.34329 13.6452 7.45106C13.4016 7.55884 13.1945 7.73504 13.0492 7.95827C12.9038 8.18149 12.8265 8.44213 12.8265 8.7085C12.8265 8.97487 12.9038 9.2355 13.0492 9.45873C13.1945 9.68195 13.4016 9.85816 13.6452 9.96593C13.8887 10.0737 14.1584 10.1084 14.4213 10.0658C14.6843 10.0232 14.9292 9.90516 15.1263 9.726C15.2918 9.87645 15.4916 9.98424 15.7082 10.04C15.9248 10.0958 16.1518 10.0979 16.3694 10.0461C16.587 9.99434 16.7887 9.89025 16.957 9.74288C17.1253 9.59551 17.2551 9.4093 17.3351 9.20042C17.4151 8.99154 17.443 8.76628 17.4163 8.54419C17.3895 8.3221 17.309 8.10989 17.1817 7.92596C17.0544 7.74202 16.8842 7.59193 16.6857 7.48868C16.4873 7.38544 16.2667 7.33217 16.043 7.3335ZM14.668 15.5835C14.4249 15.5835 14.1917 15.6801 14.0198 15.852C13.8479 16.0239 13.7513 16.257 13.7513 16.5002V17.4168C13.7513 17.6599 13.6547 17.8931 13.4828 18.065C13.3109 18.2369 13.0778 18.3335 12.8346 18.3335H3.66797C3.42485 18.3335 3.1917 18.2369 3.01979 18.065C2.84788 17.8931 2.7513 17.6599 2.7513 17.4168V13.7502H3.66797C3.91108 13.7502 4.14424 13.6536 4.31615 13.4817C4.48806 13.3098 4.58464 13.0766 4.58464 12.8335C4.58464 12.5904 4.48806 12.3572 4.31615 12.1853C4.14424 12.0134 3.91108 11.9168 3.66797 11.9168H2.7513V11.0002C2.7513 10.757 2.84788 10.5239 3.01979 10.352C3.1917 10.1801 3.42485 10.0835 3.66797 10.0835C3.91108 10.0835 4.14424 9.98692 4.31615 9.81501C4.48806 9.6431 4.58464 9.40994 4.58464 9.16683C4.58464 8.92371 4.48806 8.69056 4.31615 8.51865C4.14424 8.34674 3.91108 8.25016 3.66797 8.25016C2.93862 8.25016 2.23915 8.53989 1.72343 9.05562C1.2077 9.57134 0.917969 10.2708 0.917969 11.0002V17.4168C0.917969 18.1462 1.2077 18.8456 1.72343 19.3614C2.23915 19.8771 2.93862 20.1668 3.66797 20.1668H12.8346C13.564 20.1668 14.2635 19.8771 14.7792 19.3614C15.2949 18.8456 15.5846 18.1462 15.5846 17.4168V16.5002C15.5846 16.257 15.4881 16.0239 15.3161 15.852C15.1442 15.6801 14.9111 15.5835 14.668 15.5835ZM5.5013 16.5002H6.41797C6.66108 16.5002 6.89424 16.4036 7.06615 16.2317C7.23806 16.0598 7.33464 15.8266 7.33464 15.5835C7.33464 15.3404 7.23806 15.1072 7.06615 14.9353C6.89424 14.7634 6.66108 14.6668 6.41797 14.6668H5.5013C5.25819 14.6668 5.02503 14.7634 4.85312 14.9353C4.68121 15.1072 4.58464 15.3404 4.58464 15.5835C4.58464 15.8266 4.68121 16.0598 4.85312 16.2317C5.02503 16.4036 5.25819 16.5002 5.5013 16.5002Z" fill="white"/>
</svg>
